<svg width="500" height="400" viewBox="0 0 500 400" fill="none" xmlns="http://www.w3.org/2000/svg">
  <!-- Background -->
  <rect width="500" height="400" fill="#F8FAFC" />
  
  <!-- Sky -->
  <rect width="500" height="200" fill="#E0F2FE" />
  
  <!-- Sun -->
  <circle cx="400" cy="80" r="40" fill="#FBBF24" />
  
  <!-- Ground -->
  <rect y="200" width="500" height="200" fill="#D1FAE5" />
  
  <!-- House Base -->
  <rect x="100" y="150" width="300" height="200" fill="#FFFFFF" stroke="#334155" stroke-width="3" />
  
  <!-- Roof -->
  <path d="M80 150L250 50L420 150H80Z" fill="#EF4444" stroke="#334155" stroke-width="3" />
  
  <!-- Door -->
  <rect x="220" y="250" width="60" height="100" fill="#7C3AED" stroke="#334155" stroke-width="2" />
  <circle cx="265" cy="300" r="5" fill="#F8FAFC" />
  
  <!-- Windows -->
  <rect x="130" y="180" width="60" height="60" fill="#BFDBFE" stroke="#334155" stroke-width="2" />
  <path d="M130 210H190M160 180V240" stroke="#334155" stroke-width="2" />
  
  <rect x="310" y="180" width="60" height="60" fill="#BFDBFE" stroke="#334155" stroke-width="2" />
  <path d="M310 210H370M340 180V240" stroke="#334155" stroke-width="2" />
  
  <!-- Chimney -->
  <rect x="350" y="80" width="30" height="50" fill="#94A3B8" stroke="#334155" stroke-width="2" />
  <rect x="345" y="70" width="40" height="10" fill="#94A3B8" stroke="#334155" stroke-width="2" />
  
  <!-- Smoke -->
  <path d="M365 60C365 60 375 50 365 40C355 30 365 20 365 20" stroke="#CBD5E1" stroke-width="3" stroke-linecap="round" />
  
  <!-- Path -->
  <path d="M250 350L250 400" stroke="#94A3B8" stroke-width="10" stroke-linecap="round" />
  
  <!-- Grass -->
  <path d="M50 350C50 350 60 330 70 350" stroke="#16A34A" stroke-width="2" />
  <path d="M60 350C60 350 70 320 80 350" stroke="#16A34A" stroke-width="2" />
  <path d="M70 350C70 350 80 330 90 350" stroke="#16A34A" stroke-width="2" />
  
  <path d="M410 350C410 350 420 330 430 350" stroke="#16A34A" stroke-width="2" />
  <path d="M420 350C420 350 430 320 440 350" stroke="#16A34A" stroke-width="2" />
  <path d="M430 350C430 350 440 330 450 350" stroke="#16A34A" stroke-width="2" />
</svg> 